<svg xmlns="http://www.w3.org/2000/svg" xmlns:xlink="http://www.w3.org/1999/xlink" contentStyleType="text/css" data-diagram-type="SEQUENCE" height="1094px" preserveAspectRatio="none" style="width:1212px;height:1094px;background:#FFFFFF;" version="1.1" viewBox="0 0 1212 1094" width="1212px" zoomAndPan="magnify"><title>&#21551;&#21160; &amp; &#25191;&#34892;&#26102;&#24207;&#22270;</title><defs/><g><text fill="#000000" font-family="sans-serif" font-size="14" font-weight="bold" lengthAdjust="spacing" textLength="119.9566" x="547.58" y="27.9951">&#21551;&#21160; &amp; &#25191;&#34892;&#26102;&#24207;&#22270;</text><rect fill="none" height="225.0625" rx="3.5" ry="3.5" style="stroke:#696969;stroke-width:1;" width="954.8117" x="10" y="94.5938"/><rect fill="none" height="704.9766" rx="3.5" ry="3.5" style="stroke:#696969;stroke-width:1;" width="967.6151" x="238.5014" y="333.6563"/><rect fill="none" height="452.7813" rx="3.5" ry="3.5" style="stroke:#696969;stroke-width:1;" width="947.6151" x="248.5014" y="445.1875"/><rect fill="none" height="161.4688" rx="3.5" ry="3.5" style="stroke:#696969;stroke-width:1;" width="818.3099" x="258.5014" y="729.5"/><rect fill="none" height="119.6641" rx="3.5" ry="3.5" style="stroke:#696969;stroke-width:1;" width="818.3099" x="258.5014" y="911.9688"/><line style="stroke:#696969;stroke-width:0.5;stroke-dasharray:5.0,5.0;" x1="56" x2="56" y1="77.5938" y2="1055.6328"/><line style="stroke:#696969;stroke-width:0.5;stroke-dasharray:5.0,5.0;" x1="346.5014" x2="346.5014" y1="77.5938" y2="1055.6328"/><line style="stroke:#696969;stroke-width:0.5;stroke-dasharray:5.0,5.0;" x1="608.8377" x2="608.8377" y1="77.5938" y2="1055.6328"/><line style="stroke:#696969;stroke-width:0.5;stroke-dasharray:5.0,5.0;" x1="916.8119" x2="916.8119" y1="77.5938" y2="1055.6328"/><line style="stroke:#696969;stroke-width:0.5;stroke-dasharray:5.0,5.0;" x1="1014.8117" x2="1014.8117" y1="77.5938" y2="1055.6328"/><line style="stroke:#696969;stroke-width:0.5;stroke-dasharray:5.0,5.0;" x1="1111.8113" x2="1111.8113" y1="77.5938" y2="1055.6328"/><rect fill="#FF5F42" height="30.2969" rx="3.5" ry="3.5" style="stroke:#454645;stroke-width:0.5;" width="69.9998" x="24" y="42.2969"/><rect fill="#FF5F42" height="30.2969" rx="3.5" ry="3.5" style="stroke:#454645;stroke-width:0.5;" width="69.9998" x="20" y="46.2969"/><text fill="#454645" font-family="sans-serif" font-size="14" lengthAdjust="spacing" textLength="55.9998" x="27" y="66.292">&#26381;&#21153;&#21551;&#21160;</text><rect fill="#FF5F42" height="30.2969" rx="3.5" ry="3.5" style="stroke:#454645;stroke-width:0.5;" width="69.9998" x="24" y="1054.6328"/><rect fill="#FF5F42" height="30.2969" rx="3.5" ry="3.5" style="stroke:#454645;stroke-width:0.5;" width="69.9998" x="20" y="1058.6328"/><text fill="#454645" font-family="sans-serif" font-size="14" lengthAdjust="spacing" textLength="55.9998" x="27" y="1078.6279">&#26381;&#21153;&#21551;&#21160;</text><rect fill="#FF5F42" height="30.2969" rx="3.5" ry="3.5" style="stroke:#454645;stroke-width:0.5;" width="153.9994" x="272.5014" y="42.2969"/><rect fill="#FF5F42" height="30.2969" rx="3.5" ry="3.5" style="stroke:#454645;stroke-width:0.5;" width="153.9994" x="268.5014" y="46.2969"/><text fill="#454645" font-family="sans-serif" font-size="14" lengthAdjust="spacing" textLength="139.9994" x="275.5014" y="66.292">&#35760;&#24405;&#27599;&#20010;&#25509;&#21475;&#30340;&#23454;&#29616;&#31867;</text><rect fill="#FF5F42" height="30.2969" rx="3.5" ry="3.5" style="stroke:#454645;stroke-width:0.5;" width="153.9994" x="272.5014" y="1054.6328"/><rect fill="#FF5F42" height="30.2969" rx="3.5" ry="3.5" style="stroke:#454645;stroke-width:0.5;" width="153.9994" x="268.5014" y="1058.6328"/><text fill="#454645" font-family="sans-serif" font-size="14" lengthAdjust="spacing" textLength="139.9994" x="275.5014" y="1078.6279">&#35760;&#24405;&#27599;&#20010;&#25509;&#21475;&#30340;&#23454;&#29616;&#31867;</text><rect fill="#FF5F42" height="30.2969" rx="3.5" ry="3.5" style="stroke:#454645;stroke-width:0.5;" width="69.9998" x="576.8377" y="42.2969"/><rect fill="#FF5F42" height="30.2969" rx="3.5" ry="3.5" style="stroke:#454645;stroke-width:0.5;" width="69.9998" x="572.8377" y="46.2969"/><text fill="#454645" font-family="sans-serif" font-size="14" lengthAdjust="spacing" textLength="55.9998" x="579.8377" y="66.292">&#21160;&#24577;&#20195;&#29702;</text><rect fill="#FF5F42" height="30.2969" rx="3.5" ry="3.5" style="stroke:#454645;stroke-width:0.5;" width="69.9998" x="576.8377" y="1054.6328"/><rect fill="#FF5F42" height="30.2969" rx="3.5" ry="3.5" style="stroke:#454645;stroke-width:0.5;" width="69.9998" x="572.8377" y="1058.6328"/><text fill="#454645" font-family="sans-serif" font-size="14" lengthAdjust="spacing" textLength="55.9998" x="579.8377" y="1078.6279">&#21160;&#24577;&#20195;&#29702;</text><rect fill="#FF5F42" height="30.2969" rx="3.5" ry="3.5" style="stroke:#454645;stroke-width:0.5;" width="69.9998" x="884.8119" y="42.2969"/><rect fill="#FF5F42" height="30.2969" rx="3.5" ry="3.5" style="stroke:#454645;stroke-width:0.5;" width="69.9998" x="880.8119" y="46.2969"/><text fill="#454645" font-family="sans-serif" font-size="14" lengthAdjust="spacing" textLength="55.9998" x="887.8119" y="66.292">&#21551;&#21160;&#25104;&#21151;</text><rect fill="#FF5F42" height="30.2969" rx="3.5" ry="3.5" style="stroke:#454645;stroke-width:0.5;" width="69.9998" x="884.8119" y="1054.6328"/><rect fill="#FF5F42" height="30.2969" rx="3.5" ry="3.5" style="stroke:#454645;stroke-width:0.5;" width="69.9998" x="880.8119" y="1058.6328"/><text fill="#454645" font-family="sans-serif" font-size="14" lengthAdjust="spacing" textLength="55.9998" x="887.8119" y="1078.6279">&#21551;&#21160;&#25104;&#21151;</text><rect fill="#FF5F42" height="30.2969" rx="3.5" ry="3.5" style="stroke:#454645;stroke-width:0.5;" width="97.9996" x="968.8117" y="42.2969"/><rect fill="#FF5F42" height="30.2969" rx="3.5" ry="3.5" style="stroke:#454645;stroke-width:0.5;" width="97.9996" x="964.8117" y="46.2969"/><text fill="#454645" font-family="sans-serif" font-size="14" lengthAdjust="spacing" textLength="83.9996" x="971.8117" y="66.292">&#19994;&#21153;&#36923;&#36753;&#35843;&#29992;</text><rect fill="#FF5F42" height="30.2969" rx="3.5" ry="3.5" style="stroke:#454645;stroke-width:0.5;" width="97.9996" x="968.8117" y="1054.6328"/><rect fill="#FF5F42" height="30.2969" rx="3.5" ry="3.5" style="stroke:#454645;stroke-width:0.5;" width="97.9996" x="964.8117" y="1058.6328"/><text fill="#454645" font-family="sans-serif" font-size="14" lengthAdjust="spacing" textLength="83.9996" x="971.8117" y="1078.6279">&#19994;&#21153;&#36923;&#36753;&#35843;&#29992;</text><rect fill="#FF5F42" height="30.2969" rx="3.5" ry="3.5" style="stroke:#454645;stroke-width:0.5;" width="66.9169" x="1080.8113" y="42.2969"/><rect fill="#FF5F42" height="30.2969" rx="3.5" ry="3.5" style="stroke:#454645;stroke-width:0.5;" width="66.9169" x="1076.8113" y="46.2969"/><text fill="#454645" font-family="sans-serif" font-size="14" lengthAdjust="spacing" textLength="52.9169" x="1083.8113" y="66.292">Jexl&#24341;&#25806;</text><rect fill="#FF5F42" height="30.2969" rx="3.5" ry="3.5" style="stroke:#454645;stroke-width:0.5;" width="66.9169" x="1080.8113" y="1054.6328"/><rect fill="#FF5F42" height="30.2969" rx="3.5" ry="3.5" style="stroke:#454645;stroke-width:0.5;" width="66.9169" x="1076.8113" y="1058.6328"/><text fill="#454645" font-family="sans-serif" font-size="14" lengthAdjust="spacing" textLength="52.9169" x="1083.8113" y="1078.6279">Jexl&#24341;&#25806;</text><path d="M13.5,94.5938 L143.15,94.5938 L143.15,101.7266 L133.15,111.7266 L10,111.7266 L10,98.0938 A3.5,3.5 0 0 1 13.5,94.5938 " fill="#EEEEEE" style="stroke:#696969;stroke-width:1.5;"/><rect fill="none" height="225.0625" rx="3.5" ry="3.5" style="stroke:#696969;stroke-width:1;" width="954.8117" x="10" y="94.5938"/><text fill="#454645" font-family="color='green''" font-size="13" font-weight="bold" lengthAdjust="spacing" textLength="88.15" x="25" y="107.6606">bean&#21152;&#36733;&#27969;&#31243;</text><polygon fill="#008000" points="335.5011,128.8594,345.5011,132.8594,335.5011,136.8594,339.5011,132.8594" style="stroke:#008000;stroke-width:1;"/><line style="stroke:#008000;stroke-width:1;" x1="56.9999" x2="341.5011" y1="132.8594" y2="132.8594"/><text fill="#000000" font-family="sans-serif" font-size="13" font-weight="bold" lengthAdjust="spacing" textLength="9.0454" x="63.9999" y="127.7935">1</text><text fill="#000000" font-family="color='green''" font-size="13" lengthAdjust="spacing" textLength="253.4558" x="77.0453" y="127.7935">&#35760;&#24405;bean&#21152;&#36733;&#36807;&#31243;&#20013;&#30340;&#27599;&#20010;&#25509;&#21475;&#30340;&#30340;&#23454;&#29616;&#31867;</text><path d="M139,149.3594 L139,182.3594 A3.5,3.5 0 0 0 142.5,185.8594 L338.5,185.8594 A3.5,3.5 0 0 0 342,182.3594 L342,155.8594 L332,145.8594 L142.5,145.8594 A3.5,3.5 0 0 0 139,149.3594 " fill="#FFFF00" style="stroke:#454645;stroke-width:1.5;"/><path d="M332,145.8594 L332,154.1094 A1.75,1.75 0 0 0 333.75,155.8594 L342,155.8594 L332,145.8594 " fill="#FFFF00" style="stroke:#454645;stroke-width:1.5;"/><text fill="#454645" font-family="color='green''" font-size="13" lengthAdjust="spacing" textLength="182.0002" x="145" y="162.9263">&#22312;&#36825;&#37324;&#20250;&#25195;&#25551;&#24182;&#35760;&#24405;&#25152;&#26377;&#25509;&#21475;&#34987;</text><text fill="#FF05DE" font-family="sans-serif" font-size="13" lengthAdjust="spacing" textLength="100.3691" x="145" y="178.0591">@SmartService</text><text fill="#454645" font-family="color='green''" font-size="13" lengthAdjust="spacing" textLength="78.0001" x="245.3691" y="178.0591">&#26631;&#27880;&#30340;&#23454;&#29616;&#31867;</text><polygon fill="#008000" points="597.8376,208.2578,607.8376,212.2578,597.8376,216.2578,601.8376,212.2578" style="stroke:#008000;stroke-width:1;"/><line style="stroke:#008000;stroke-width:1;" x1="347.5011" x2="603.8376" y1="212.2578" y2="212.2578"/><text fill="#000000" font-family="sans-serif" font-size="13" font-weight="bold" lengthAdjust="spacing" textLength="9.0454" x="354.5011" y="207.1919">2</text><text fill="#000000" font-family="color='green''" font-size="13" lengthAdjust="spacing" textLength="179.5881" x="367.5465" y="207.1919">&#21019;&#24314;&#20195;&#29702;&#31867;&#24182;&#27880;&#20876;&#20840;&#23616;&#30340; bean</text><path d="M369,228.7578 L369,246.7578 A3.5,3.5 0 0 0 372.5,250.2578 L599.5,250.2578 A3.5,3.5 0 0 0 603,246.7578 L603,235.2578 L593,225.2578 L372.5,225.2578 A3.5,3.5 0 0 0 369,228.7578 " fill="#FFFF00" style="stroke:#454645;stroke-width:1.5;"/><path d="M593,225.2578 L593,233.5078 A1.75,1.75 0 0 0 594.75,235.2578 L603,235.2578 L593,225.2578 " fill="#FFFF00" style="stroke:#454645;stroke-width:1.5;"/><text fill="#454645" font-family="color='green''" font-size="13" lengthAdjust="spacing" textLength="213.9797" x="375" y="242.3247">&#22312;&#36825;&#37324;&#20250;&#20026;&#25351;&#23450;interface&#29983;&#25104;&#20195;&#29702;&#31867;</text><polygon fill="#008000" points="905.8118,272.5234,915.8118,276.5234,905.8118,280.5234,909.8118,276.5234" style="stroke:#008000;stroke-width:1;"/><line style="stroke:#008000;stroke-width:1;" x1="609.8376" x2="911.8118" y1="276.5234" y2="276.5234"/><text fill="#000000" font-family="sans-serif" font-size="13" font-weight="bold" lengthAdjust="spacing" textLength="9.0454" x="616.8376" y="271.4575">3</text><text fill="#000000" font-family="color='green''" font-size="13" lengthAdjust="spacing" textLength="78.0001" x="629.883" y="271.4575">&#26381;&#21153;&#21551;&#21160;&#23436;&#25104;</text><path d="M463,293.0234 L463,311.0234 A3.5,3.5 0 0 0 466.5,314.5234 L908.5,314.5234 A3.5,3.5 0 0 0 912,311.0234 L912,299.5234 L902,289.5234 L466.5,289.5234 A3.5,3.5 0 0 0 463,293.0234 " fill="#FFFF00" style="stroke:#454645;stroke-width:1.5;"/><path d="M902,289.5234 L902,297.7734 A1.75,1.75 0 0 0 903.75,299.5234 L912,299.5234 L902,289.5234 " fill="#FFFF00" style="stroke:#454645;stroke-width:1.5;"/><text fill="#454645" font-family="color='green''" font-size="13" lengthAdjust="spacing" textLength="428.0164" x="469" y="306.5903">&#26381;&#21153;&#21551;&#21160;&#23436;&#25104;, &#20854;&#20182;&#38656;&#35201;&#24341;&#20837;&#30340;&#22320;&#26041;&#20351;&#29992; @Resource&#27880;&#35299; &#25353;&#25509;&#21475;&#24341;&#20837;&#21363;&#21487;</text><path d="M242.0014,333.6563 L867.2385,333.6563 L867.2385,340.7891 L857.2385,350.7891 L238.5014,350.7891 L238.5014,337.1563 A3.5,3.5 0 0 1 242.0014,333.6563 " fill="#EEEEEE" style="stroke:#696969;stroke-width:1.5;"/><rect fill="none" height="704.9766" rx="3.5" ry="3.5" style="stroke:#696969;stroke-width:1;" width="967.6151" x="238.5014" y="333.6563"/><text fill="#FF05DE" font-family="sans-serif" font-size="13" font-weight="bold" lengthAdjust="spacing" textLength="583.7371" x="253.5014" y="346.7231">&#36923;&#36753;&#25191;&#34892;&#65306;&#36890;&#36807;&#32452;&#20214;&#29983;&#25104;&#30340;&#25509;&#21475;&#30340;&#20195;&#29702;&#31867;&#21457;&#36215;&#26041;&#27861;&#35843;&#29992;&#65288;&#35813;&#31867;&#30452;&#25509;&#36890;&#36807; @Resource &#27880;&#35299;&#27880;&#20837;&#21363;&#21487;&#65289;</text><polygon fill="#FF0000" points="620.8376,367.9219,610.8376,371.9219,620.8376,375.9219,616.8376,371.9219" style="stroke:#FF0000;stroke-width:1;"/><line style="stroke:#FF0000;stroke-width:1;" x1="614.8376" x2="1014.8115" y1="371.9219" y2="371.9219"/><text fill="#000000" font-family="sans-serif" font-size="13" font-weight="bold" lengthAdjust="spacing" textLength="9.0454" x="626.8376" y="366.856">1</text><text fill="#FF05DE" font-family="sans-serif" font-size="13" lengthAdjust="spacing" textLength="154.9592" x="639.883" y="366.856">"&#36890;&#36807;&#20195;&#29702;&#31867;&#21457;&#36215;&#36923;&#36753;&#35843;&#29992;"</text><polygon fill="#FF0000" points="358.5011,397.0547,348.5011,401.0547,358.5011,405.0547,354.5011,401.0547" style="stroke:#FF0000;stroke-width:1;"/><line style="stroke:#FF0000;stroke-width:1;" x1="352.5011" x2="608.8376" y1="401.0547" y2="401.0547"/><text fill="#000000" font-family="sans-serif" font-size="13" font-weight="bold" lengthAdjust="spacing" textLength="9.0454" x="364.5011" y="395.9888">2</text><text fill="#FF05DE" font-family="sans-serif" font-size="13" lengthAdjust="spacing" textLength="104.0001" x="377.5465" y="395.9888">&#33719;&#21462;&#25509;&#21475;&#30340;&#23454;&#29616;&#31867;</text><polygon fill="#FF0000" points="597.8376,426.1875,607.8376,430.1875,597.8376,434.1875,601.8376,430.1875" style="stroke:#FF0000;stroke-width:1;"/><line style="stroke:#FF0000;stroke-width:1;" x1="347.5011" x2="603.8376" y1="430.1875" y2="430.1875"/><text fill="#000000" font-family="sans-serif" font-size="13" font-weight="bold" lengthAdjust="spacing" textLength="9.0454" x="354.5011" y="425.1216">3</text><text fill="#FF05DE" font-family="sans-serif" font-size="13" lengthAdjust="spacing" textLength="130.0002" x="367.5465" y="425.1216">&#35299;&#26512;&#23454;&#29616;&#31867;&#30340;&#20999;&#25442;&#35268;&#21017;</text><path d="M252.0014,445.1875 L325.1254,445.1875 L325.1254,452.3203 L315.1254,462.3203 L248.5014,462.3203 L248.5014,448.6875 A3.5,3.5 0 0 1 252.0014,445.1875 " fill="#EEEEEE" style="stroke:#696969;stroke-width:1.5;"/><rect fill="none" height="452.7813" rx="3.5" ry="3.5" style="stroke:#696969;stroke-width:1;" width="947.6151" x="248.5014" y="445.1875"/><text fill="#454645" font-family="sans-serif" font-size="13" font-weight="bold" lengthAdjust="spacing" textLength="31.624" x="263.5014" y="458.2544">loop</text><text fill="#696969" font-family="sans-serif" font-size="11" font-weight="bold" lengthAdjust="spacing" textLength="5.0273" x="340.1254" y="457.3979">[</text><text fill="#FF05DE" font-family="sans-serif" font-size="11" font-weight="bold" lengthAdjust="spacing" textLength="126.7089" x="345.1528" y="457.3979">"&#36941;&#21382;&#25152;&#26377;&#30340; bean &#23454;&#29616;"</text><text fill="#696969" font-family="sans-serif" font-size="11" font-weight="bold" lengthAdjust="spacing" textLength="5.0273" x="471.8617" y="457.3979">]</text><path d="M341,470.8203 L341,518.8203 A3.5,3.5 0 0 0 344.5,522.3203 L1182.5,522.3203 A3.5,3.5 0 0 0 1186,518.8203 L1186,477.3203 L1176,467.3203 L344.5,467.3203 A3.5,3.5 0 0 0 341,470.8203 " fill="#008000" style="stroke:#454645;stroke-width:1.5;"/><path d="M1176,467.3203 L1176,475.5703 A1.75,1.75 0 0 0 1177.75,477.3203 L1186,477.3203 L1176,467.3203 " fill="#008000" style="stroke:#454645;stroke-width:1.5;"/><text fill="#FFFF00" font-family="sans-serif" font-size="13" lengthAdjust="spacing" textLength="724.0137" x="347" y="484.3872">JEXL&#65288;Java Expression Language&#65289;&#26159;Apache Commons&#39033;&#30446;&#20013;&#30340;&#19968;&#20010;&#23376;&#39033;&#30446;,&#23427;&#25552;&#20379;&#20102;&#19968;&#31181;&#36731;&#37327;&#32423;&#19988;&#28789;&#27963;&#30340;&#34920;&#36798;&#24335;&#35821;&#35328;&#65292;</text><text fill="#FFFF00" font-family="sans-serif" font-size="13" lengthAdjust="spacing" textLength="824.1165" x="347" y="499.52">&#29992;&#20110;&#22312;Java&#24212;&#29992;&#31243;&#24207;&#20013;&#21160;&#24577;&#35745;&#31639;&#21644;&#25805;&#20316;&#25968;&#25454;&#12290;JEXL&#30340;&#35774;&#35745;&#21021;&#34935;&#26159;&#20026;&#20102;&#20351;&#34920;&#36798;&#24335;&#30340;&#35299;&#26512;&#21644;&#25191;&#34892;&#21464;&#24471;&#31616;&#21333;&#19988;&#39640;&#25928;&#65292;&#21516;&#26102;&#20445;&#25345;&#19982;Java&#35821;&#35328;&#30340;&#32039;&#23494;&#38598;&#25104;&#12290;</text><text fill="#FFFF00" font-family="sans-serif" font-size="13" lengthAdjust="spacing" textLength="678.1966" x="347" y="514.6528">JEXL&#35774;&#35745;&#20043;&#21021;&#23601;&#32771;&#34385;&#20102;&#24615;&#33021;&#38382;&#39064;&#65292;&#36890;&#36807;&#32534;&#35793;&#21644;&#32531;&#23384;&#26426;&#21046;&#26469;&#25552;&#39640;&#34920;&#36798;&#24335;&#30340;&#25191;&#34892;&#25928;&#29575;&#12290;&#36825;&#37324;&#30340;&#36923;&#36753;&#21028;&#23450;&#32791;&#26102;&#19968;&#33324;&#22312;&#32435;&#31186;&#32423;&#21035;</text><polygon fill="#6A00FF" points="1100.2697,546.0156,1110.2697,550.0156,1100.2697,554.0156,1104.2697,550.0156" style="stroke:#6A00FF;stroke-width:1;"/><line style="stroke:#6A00FF;stroke-width:1;" x1="609.8376" x2="1106.2697" y1="550.0156" y2="550.0156"/><text fill="#000000" font-family="sans-serif" font-size="13" font-weight="bold" lengthAdjust="spacing" textLength="9.0454" x="616.8376" y="544.3677">4</text><text fill="#6A00FF" font-family="sans-serif" font-size="14" font-weight="bold" lengthAdjust="spacing" textLength="112.1227" x="629.883" y="544.7139">&#21019;&#24314;jexl&#35299;&#26512;&#24341;&#25806;</text><polygon fill="#6A00FF" points="1100.2697,576.3125,1110.2697,580.3125,1100.2697,584.3125,1104.2697,580.3125" style="stroke:#6A00FF;stroke-width:1;"/><line style="stroke:#6A00FF;stroke-width:1;" x1="609.8376" x2="1106.2697" y1="580.3125" y2="580.3125"/><text fill="#000000" font-family="sans-serif" font-size="13" font-weight="bold" lengthAdjust="spacing" textLength="9.0454" x="616.8376" y="574.6646">5</text><text fill="#6A00FF" font-family="sans-serif" font-size="14" font-weight="bold" lengthAdjust="spacing" textLength="126.1226" x="629.883" y="575.0107">&#21521;jexl&#27880;&#20876;&#26041;&#27861;&#20837;&#21442;</text><polygon fill="#6A00FF" points="1100.2697,606.6094,1110.2697,610.6094,1100.2697,614.6094,1104.2697,610.6094" style="stroke:#6A00FF;stroke-width:1;"/><line style="stroke:#6A00FF;stroke-width:1;" x1="609.8376" x2="1106.2697" y1="610.6094" y2="610.6094"/><text fill="#000000" font-family="sans-serif" font-size="13" font-weight="bold" lengthAdjust="spacing" textLength="9.0454" x="616.8376" y="604.9614">6</text><text fill="#6A00FF" font-family="sans-serif" font-size="14" font-weight="bold" lengthAdjust="spacing" textLength="210.1223" x="629.883" y="605.3076">&#21521;jexl&#27880;&#20876;&#20840;&#23616;&#21464;&#37327;&#21644;&#33258;&#23450;&#20041;&#20989;&#25968;</text><polygon fill="#6A00FF" points="1100.2697,636.9063,1110.2697,640.9063,1100.2697,644.9063,1104.2697,640.9063" style="stroke:#6A00FF;stroke-width:1;"/><line style="stroke:#6A00FF;stroke-width:1;" x1="609.8376" x2="1106.2697" y1="640.9063" y2="640.9063"/><text fill="#000000" font-family="sans-serif" font-size="13" font-weight="bold" lengthAdjust="spacing" textLength="9.0454" x="616.8376" y="635.2583">7</text><text fill="#6A00FF" font-family="sans-serif" font-size="14" font-weight="bold" lengthAdjust="spacing" textLength="233.8702" x="629.883" y="635.6045">&#36890;&#36807; jexl &#26469;&#25191;&#34892;&#33050;&#26412;&#24182;&#33719;&#21462;&#36820;&#22238;&#32467;&#26524;</text><polygon fill="#6A00FF" points="620.8376,667.2031,610.8376,671.2031,620.8376,675.2031,616.8376,671.2031" style="stroke:#6A00FF;stroke-width:1;"/><line style="stroke:#6A00FF;stroke-width:1;" x1="614.8376" x2="1111.2697" y1="671.2031" y2="671.2031"/><text fill="#000000" font-family="sans-serif" font-size="13" font-weight="bold" lengthAdjust="spacing" textLength="9.0454" x="626.8376" y="665.5552">8</text><text fill="#6A00FF" font-family="sans-serif" font-size="14" font-weight="bold" lengthAdjust="spacing" textLength="242.9962" x="639.883" y="665.9014">jexl &#25191;&#34892;&#36755;&#20837;&#30340;&#26465;&#20214;&#34920;&#36798;&#24335;&#24182;&#36820;&#22238;&#32467;&#26524;</text><line style="stroke:#6A00FF;stroke-width:1;stroke-dasharray:2.0,2.0;" x1="609.8376" x2="651.8376" y1="701.5" y2="701.5"/><line style="stroke:#6A00FF;stroke-width:1;stroke-dasharray:2.0,2.0;" x1="651.8376" x2="651.8376" y1="701.5" y2="714.5"/><line style="stroke:#6A00FF;stroke-width:1;stroke-dasharray:2.0,2.0;" x1="610.8376" x2="651.8376" y1="714.5" y2="714.5"/><polygon fill="#6A00FF" points="620.8376,710.5,610.8376,714.5,620.8376,718.5,616.8376,714.5" style="stroke:#6A00FF;stroke-width:1;"/><text fill="#000000" font-family="sans-serif" font-size="13" font-weight="bold" lengthAdjust="spacing" textLength="9.0454" x="616.8376" y="695.8521">9</text><text fill="#6A00FF" font-family="sans-serif" font-size="14" font-weight="bold" lengthAdjust="spacing" textLength="280.9288" x="629.883" y="696.1982">&#21028;&#23450;jexl &#25191;&#34892;&#36755;&#20837;&#30340;&#26465;&#20214;&#34920;&#36798;&#24335;&#26159;&#21542;&#20026; true</text><path d="M262.0014,729.5 L322.9443,729.5 L322.9443,736.6328 L312.9443,746.6328 L258.5014,746.6328 L258.5014,733 A3.5,3.5 0 0 1 262.0014,729.5 " fill="#EEEEEE" style="stroke:#696969;stroke-width:1.5;"/><rect fill="none" height="161.4688" rx="3.5" ry="3.5" style="stroke:#696969;stroke-width:1;" width="818.3099" x="258.5014" y="729.5"/><text fill="#454645" font-family="sans-serif" font-size="13" font-weight="bold" lengthAdjust="spacing" textLength="19.4429" x="273.5014" y="742.5669">alt</text><text fill="#696969" font-family="sans-serif" font-size="11" font-weight="bold" lengthAdjust="spacing" textLength="5.0273" x="337.9443" y="741.7104">[</text><text fill="#FF05DE" font-family="sans-serif" font-size="11" font-weight="bold" lengthAdjust="spacing" textLength="126.0164" x="342.9716" y="741.7104">"jexl eval&#32467;&#26524;&#20026; true"</text><text fill="#696969" font-family="sans-serif" font-size="11" font-weight="bold" lengthAdjust="spacing" textLength="5.0273" x="468.988" y="741.7104">]</text><polygon fill="#454645" points="358.5011,763.7656,348.5011,767.7656,358.5011,771.7656,354.5011,767.7656" style="stroke:#454645;stroke-width:1;"/><line style="stroke:#454645;stroke-width:1;" x1="352.5011" x2="608.8376" y1="767.7656" y2="767.7656"/><text fill="#000000" font-family="sans-serif" font-size="13" font-weight="bold" lengthAdjust="spacing" textLength="18.0908" x="364.5011" y="762.6997">10</text><text fill="#FF05DE" font-family="sans-serif" font-size="13" lengthAdjust="spacing" textLength="180.9592" x="386.5919" y="762.6997">"&#35843;&#29992;&#31526;&#21512;&#26465;&#20214;&#30340;&#23454;&#29616;&#31867;&#30340;&#26041;&#27861;"</text><polygon fill="#454645" points="597.8376,792.8984,607.8376,796.8984,597.8376,800.8984,601.8376,796.8984" style="stroke:#454645;stroke-width:1;"/><line style="stroke:#454645;stroke-width:1;" x1="347.5011" x2="603.8376" y1="796.8984" y2="796.8984"/><text fill="#000000" font-family="sans-serif" font-size="13" font-weight="bold" lengthAdjust="spacing" textLength="18.0908" x="354.5011" y="791.8325">11</text><text fill="#FF05DE" font-family="sans-serif" font-size="13" lengthAdjust="spacing" textLength="104.0001" x="376.5919" y="791.8325">&#36820;&#22238;&#20989;&#25968;&#25191;&#34892;&#32467;&#26524;</text><text fill="#000000" font-family="sans-serif" font-size="13" lengthAdjust="spacing" textLength="52.0317" x="480.5921" y="791.8325">&lt;/font&gt;</text><polygon fill="#454645" points="1003.8115,822.0313,1013.8115,826.0313,1003.8115,830.0313,1007.8115,826.0313" style="stroke:#454645;stroke-width:1;"/><line style="stroke:#454645;stroke-width:1;" x1="609.8376" x2="1009.8115" y1="826.0313" y2="826.0313"/><text fill="#000000" font-family="sans-serif" font-size="13" font-weight="bold" lengthAdjust="spacing" textLength="18.0908" x="616.8376" y="820.9653">12</text><text fill="#FF05DE" font-family="sans-serif" font-size="13" lengthAdjust="spacing" textLength="104.0001" x="638.9284" y="820.9653">&#36820;&#22238;&#20989;&#25968;&#25191;&#34892;&#32467;&#26524;</text><text fill="#000000" font-family="sans-serif" font-size="13" lengthAdjust="spacing" textLength="52.0317" x="742.9286" y="820.9653">&lt;/font&gt;</text><line style="stroke:#696969;stroke-width:1;stroke-dasharray:2.0,2.0;" x1="258.5014" x2="1076.8113" y1="835.0313" y2="835.0313"/><text fill="#696969" font-family="sans-serif" font-size="11" font-weight="bold" lengthAdjust="spacing" textLength="5.0273" x="263.5014" y="845.2417">[</text><text fill="#FF05DE" font-family="sans-serif" font-size="11" font-weight="bold" lengthAdjust="spacing" textLength="130.0286" x="268.5288" y="845.2417">"jexl eval&#32467;&#26524;&#20026; false"</text><text fill="#696969" font-family="sans-serif" font-size="11" font-weight="bold" lengthAdjust="spacing" textLength="5.0273" x="398.5573" y="845.2417">]</text><line style="stroke:#454645;stroke-width:1;" x1="347.5011" x2="389.5011" y1="869.9688" y2="869.9688"/><line style="stroke:#454645;stroke-width:1;" x1="389.5011" x2="389.5011" y1="869.9688" y2="882.9688"/><line style="stroke:#454645;stroke-width:1;" x1="348.5011" x2="389.5011" y1="882.9688" y2="882.9688"/><polygon fill="#454645" points="358.5011,878.9688,348.5011,882.9688,358.5011,886.9688,354.5011,882.9688" style="stroke:#454645;stroke-width:1;"/><text fill="#000000" font-family="sans-serif" font-size="13" font-weight="bold" lengthAdjust="spacing" textLength="18.0908" x="354.5011" y="864.9028">10</text><text fill="#FF05DE" font-family="sans-serif" font-size="13" lengthAdjust="spacing" textLength="209.9489" x="376.5919" y="864.9028">"&#32487;&#32493;&#36941;&#21382; eval&#19979;&#19968;&#20010; bean&#30340;&#26465;&#20214;"</text><path d="M262.0014,911.9688 L322.9443,911.9688 L322.9443,919.1016 L312.9443,929.1016 L258.5014,929.1016 L258.5014,915.4688 A3.5,3.5 0 0 1 262.0014,911.9688 " fill="#EEEEEE" style="stroke:#696969;stroke-width:1.5;"/><rect fill="none" height="119.6641" rx="3.5" ry="3.5" style="stroke:#696969;stroke-width:1;" width="818.3099" x="258.5014" y="911.9688"/><text fill="#454645" font-family="sans-serif" font-size="13" font-weight="bold" lengthAdjust="spacing" textLength="19.4429" x="273.5014" y="925.0356">alt</text><text fill="#696969" font-family="sans-serif" font-size="11" font-weight="bold" lengthAdjust="spacing" textLength="5.0273" x="337.9443" y="924.1792">[</text><text fill="#FF05DE" font-family="sans-serif" font-size="11" font-weight="bold" lengthAdjust="spacing" textLength="143.461" x="342.9716" y="924.1792">"&#26410;&#21629;&#20013;&#20219;&#20309;&#31526;&#21512;&#26465;&#20214;&#23454;&#29616;&#31867;"</text><text fill="#696969" font-family="sans-serif" font-size="11" font-weight="bold" lengthAdjust="spacing" textLength="5.0273" x="486.4326" y="924.1792">]</text><polygon fill="#454645" points="358.5011,961.3672,348.5011,965.3672,358.5011,969.3672,354.5011,965.3672" style="stroke:#454645;stroke-width:1;"/><line style="stroke:#454645;stroke-width:1;" x1="352.5011" x2="608.8376" y1="965.3672" y2="965.3672"/><text fill="#000000" font-family="sans-serif" font-size="13" font-weight="bold" lengthAdjust="spacing" textLength="18.0908" x="364.5011" y="952.7349">11</text><text fill="#FF05DE" font-family="sans-serif" font-size="13" lengthAdjust="spacing" textLength="216.2457" x="386.5919" y="945.1685">&#33719;&#21462;&#36890;&#36807;@SmartService&#30340;primary</text><text fill="#FF05DE" font-family="sans-serif" font-size="13" lengthAdjust="spacing" textLength="117.0001" x="386.5919" y="960.3013">&#23646;&#24615;&#26631;&#27880;&#30340;&#40664;&#35748;&#23454;&#29616;</text><polygon fill="#454645" points="597.8376,990.5,607.8376,994.5,597.8376,998.5,601.8376,994.5" style="stroke:#454645;stroke-width:1;"/><line style="stroke:#454645;stroke-width:1;" x1="347.5011" x2="603.8376" y1="994.5" y2="994.5"/><text fill="#000000" font-family="sans-serif" font-size="13" font-weight="bold" lengthAdjust="spacing" textLength="18.0908" x="354.5011" y="989.4341">12</text><text fill="#FF05DE" font-family="sans-serif" font-size="13" lengthAdjust="spacing" textLength="104.0001" x="376.5919" y="989.4341">&#36820;&#22238;&#20989;&#25968;&#25191;&#34892;&#32467;&#26524;</text><polygon fill="#454645" points="1003.8115,1019.6328,1013.8115,1023.6328,1003.8115,1027.6328,1007.8115,1023.6328" style="stroke:#454645;stroke-width:1;"/><line style="stroke:#454645;stroke-width:1;" x1="609.8376" x2="1009.8115" y1="1023.6328" y2="1023.6328"/><text fill="#000000" font-family="sans-serif" font-size="13" font-weight="bold" lengthAdjust="spacing" textLength="18.0908" x="616.8376" y="1018.5669">13</text><text fill="#FF05DE" font-family="sans-serif" font-size="13" lengthAdjust="spacing" textLength="104.0001" x="638.9284" y="1018.5669">&#36820;&#22238;&#20989;&#25968;&#25191;&#34892;&#32467;&#26524;</text><!--SRC=[hLXjJnjN5lxkNp5rf6ejPTMaxUu7b4R9RfrA4MehacYxsbsD1ljYfclFM3DZIlQJoGisYS4cu430eILfOYi9XYW90R_0Z-dSE-DF-GjxxbmpSySUssow5WZRzvpdFFUy3uPi9960IxluNatuL20BLNkxGDRsSQE8Duz2dnZJA8M46NbIanGZ5FeaZgPa1GdfZ9PE8Z6c9bLD-FFbS-UkN77F4Xf2IlV8UU-UQ2ZU_VxAbND_-Zhg7jn4oQJwK_UCVN3FhbsV-ExRRyJhqH-k_y50iqP4k31vaRwvyDdaHLVg-niJtuz7VL9Jgc883kHNOPvlMD3b_w2lpdzvaGEwy1aLz_2-cOX6lnq8nrtnL6X_6RyncDjaCeF2NTMF9H6iFn7zUg2s6ujWrRz7nyU_-zj0RJvWmG0QYgbQN9HJwQIOqXFyNS9sVG-tovD8Kl2zN-nsspxEMRNxvi6EjN67x1RDWnTawHakFeMFy8FhMzRIdlMw6Owuw34DIGOIqvewUxCF7kStSRDXDfzQfNbGmuVxv4qDpnVmtHf-dGL4WPeUWYOgge7ya9MQVVoeaokOhGtpe44AELpVa1K3QLDI35chFvDyoJN88Uk6f1cYded5aAxt4IMLHNnlcnKVhXS0OvXgFwj-_RC2lhjlDXzsAbdx-HnkbV7TPzI5bJtoyD1i7rkhDU7I1DBLZ1P3u1Mx-bGWXGNcRYQE5z_WuYv7X3fBJAfIN9o2cFi8U24ax-OWX9nMKat8CH7DefYOqDHCMbIa59UHdMpJFbfcxUP3QwEJtQ19qBnZDlUPDsagd2I15yhYiltkFLo5l2dRUxVXDXzQUNlt6HnPcsz1dk5uLnJO7MdyJsxseRKGo9869ypqU-mnhinUs6jpoF2osrvwZuiFNS9kodeDKz9qsd-Kk6p8gY9g6MYxbDbMoHMcYlaSMNnYL-7D8rVtHpIR596IWFTYDrMfJRxbTNEUIdP1MsMoiiJ5mmS2bGeb6u1IMgPoh5oOcwdVYhT606aeCGACrHukhdToHVoWOETUG06PXmiuroRblG7mQ4PAzkDsOqm51VBu6SiX-yu6gRo2KcUHi8zNyUQMrLmXMvLXu1hICqd3Zy-06UhH2YiWydWRCjFUhjb7HxXLf7PEQS4DUM-yVWK7dC8KMT_5fUVGSmH3Wpd1fwwQ5ftQTBCmt9bRn4lpP25BAWidVKvW-UKbhXxJvBJ1s55CfkfGeT-nAxa60zMcfAG-MCyv7QP8qqPMJYnRpQhLt67K7IJp06P15gQ0mzzrITZVaPnRoygC-c_0GSQq6cTmh4wjLyznASyK-OAaQ4vUZqRJa97H50VKRLjX5dQMjInmVIcWg69ACcBJif9mobmNVq8Q4gTbGu2E_G8ljs7IcSscsIxpBBqnvsiny5Q257K8mYgc69BJFoG5fW5qWhWu8qimkUIKfDtqSsMLmAhbqZKuDwuXRKQ6SRLnfwiG-QVYYkFNMoHR9R_ae611ejDSj-k_CbA3Pa7VHEB795buIOfEfJZJdYKbwv3savUyvR2FNJZ20Gek7zSzFRKMHthCuI4cuRlpliKbV3NwmpXCYAlIZ2H4PzDGxJgjn759IMIa189H0ELrEIt5ff7mLpMLKXMzitreRTRPBiAo4E-Ks9TdSVqsAPRCeqspCGzdLdNHRZUXeLcDgdcmQisz8szfWhcrQ-_ksBNiXrOX7166iVxSpnhIrsmiWIyfRznOfUbSkmyRER22IK-oStPzswglGHybAujckq9pSR7-M_OMlIybK3y22Pn_R6-_Xmj2JLB2xMEN69LXOm8Wd2o6peoFrgnw5Y-MuIwTb-kad0Vck4IV1ipZnwGmPnuiKKRiLdGtUrl5k_ETpNaOrs0yF3GoN_H7Xj4q3-y3KxptsixUjXyj0rD8G_jskxDMxpnP1mhTtQ3rqDvT1hvMQmNlh9DA0-VtQVilbe0iVxFkCqmvRotbW1PBI9hHpXXdZTVEhj5h7MJj_2jmjDLuOrKVG1Xn_YLS0rwmsIPHZ9QQBl1hbY3fWiuILNGsD9zaDzNzAwoRkLINMujzcYokRF6WScmNfUNc5tD8WB_nlPyTAloIw9Cq3pQ0DB-wK7blt_49NuLuiOs12d4pB1HobhUUkWy9y98oXgfaKfD8Spxwd2ByyHzddCUJVrtaRooCzJuMEAfE5qcYASCdUuOzOum5j1n7YvVbp7cE6-lRwtkiUQAkiU170KUFa-RC-G8mrhUpzrZqdRj6WpVz45BY9-uFNAQ3ek09KfBmZEVtYDjo_Njl9E22J9TpigVCRxwHe5ZqsVM6Kj0U7EbILzE-XtsERE-c4s4ghdFL6QHnzixs-9dz5qBWNa6ZOvJ0vwC4ld0587I2cpZzlkN_6m6EukfjRC2o_tk1l8N__uJKtVX_9zh9WX_oUPKT1k3m6JLWbGyaz3yYkTdfWadmZE2cOz3-7F7bXbUKmlbplXEUbR-wFFmXswtVZA_g1jJRwEKsCeIWroO-4XB1kX_iEVSHuhIkwxbjiE-6Fsj4-08DyNzz0Hwym7i0FC_peT7X_PXLFdIAG8yEHcXqQ4y9Gfq5l_y5]--></g></svg>