<svg xmlns="http://www.w3.org/2000/svg" xmlns:xlink="http://www.w3.org/1999/xlink" contentStyleType="text/css" data-diagram-type="SEQUENCE" height="909px" preserveAspectRatio="none" style="width:1015px;height:909px;background:#FFFFFF;" version="1.1" viewBox="0 0 1015 909" width="1015px" zoomAndPan="magnify"><title>&#21551;&#21160; &amp; &#25191;&#34892;&#26102;&#24207;&#22270;</title><defs/><g><text fill="#000000" font-family="sans-serif" font-size="14" font-weight="bold" lengthAdjust="spacing" textLength="119.9566" x="449.3749" y="27.9951">&#21551;&#21160; &amp; &#25191;&#34892;&#26102;&#24207;&#22270;</text><rect fill="none" height="134.7969" rx="3.5" ry="3.5" style="stroke:#696969;stroke-width:1;" width="804.7899" x="10" y="90.5938"/><rect fill="none" height="617.4609" rx="3.5" ry="3.5" style="stroke:#696969;stroke-width:1;" width="881.6606" x="128.0458" y="239.3906"/><rect fill="none" height="380.3984" rx="3.5" ry="3.5" style="stroke:#696969;stroke-width:1;" width="861.6606" x="138.0458" y="350.9219"/><rect fill="none" height="161.4688" rx="3.5" ry="3.5" style="stroke:#696969;stroke-width:1;" width="774.7438" x="148.0458" y="562.8516"/><rect fill="none" height="104.5313" rx="3.5" ry="3.5" style="stroke:#696969;stroke-width:1;" width="774.7438" x="148.0458" y="745.3203"/><line style="stroke:#696969;stroke-width:0.5;stroke-dasharray:5.0,5.0;" x1="54" x2="54" y1="73.5938" y2="873.8516"/><line style="stroke:#696969;stroke-width:0.5;stroke-dasharray:5.0,5.0;" x1="234.0458" x2="234.0458" y1="73.5938" y2="873.8516"/><line style="stroke:#696969;stroke-width:0.5;stroke-dasharray:5.0,5.0;" x1="476.9266" x2="476.9266" y1="73.5938" y2="873.8516"/><line style="stroke:#696969;stroke-width:0.5;stroke-dasharray:5.0,5.0;" x1="768.7901" x2="768.7901" y1="73.5938" y2="873.8516"/><line style="stroke:#696969;stroke-width:0.5;stroke-dasharray:5.0,5.0;" x1="862.7899" x2="862.7899" y1="73.5938" y2="873.8516"/><line style="stroke:#696969;stroke-width:0.5;stroke-dasharray:5.0,5.0;" x1="955.7895" x2="955.7895" y1="73.5938" y2="873.8516"/><rect fill="#FF6347" height="30.2969" rx="3.5" ry="3.5" style="stroke:#454645;stroke-width:1.5;" width="69.9998" x="20" y="42.2969"/><text fill="#FFFFFF" font-family="sans-serif" font-size="14" lengthAdjust="spacing" textLength="55.9998" x="27" y="62.292">&#26381;&#21153;&#21551;&#21160;</text><rect fill="#FF6347" height="30.2969" rx="3.5" ry="3.5" style="stroke:#454645;stroke-width:1.5;" width="69.9998" x="20" y="872.8516"/><text fill="#FFFFFF" font-family="sans-serif" font-size="14" lengthAdjust="spacing" textLength="55.9998" x="27" y="892.8467">&#26381;&#21153;&#21551;&#21160;</text><rect fill="#FF6347" height="30.2969" rx="3.5" ry="3.5" style="stroke:#454645;stroke-width:1.5;" width="153.9994" x="158.0458" y="42.2969"/><text fill="#FFFFFF" font-family="sans-serif" font-size="14" lengthAdjust="spacing" textLength="139.9994" x="165.0458" y="62.292">&#35760;&#24405;&#27599;&#20010;&#25509;&#21475;&#30340;&#23454;&#29616;&#31867;</text><rect fill="#FF6347" height="30.2969" rx="3.5" ry="3.5" style="stroke:#454645;stroke-width:1.5;" width="153.9994" x="158.0458" y="872.8516"/><text fill="#FFFFFF" font-family="sans-serif" font-size="14" lengthAdjust="spacing" textLength="139.9994" x="165.0458" y="892.8467">&#35760;&#24405;&#27599;&#20010;&#25509;&#21475;&#30340;&#23454;&#29616;&#31867;</text><rect fill="#FF6347" height="30.2969" rx="3.5" ry="3.5" style="stroke:#454645;stroke-width:1.5;" width="69.9998" x="442.9266" y="42.2969"/><text fill="#FFFFFF" font-family="sans-serif" font-size="14" lengthAdjust="spacing" textLength="55.9998" x="449.9266" y="62.292">&#21160;&#24577;&#20195;&#29702;</text><rect fill="#FF6347" height="30.2969" rx="3.5" ry="3.5" style="stroke:#454645;stroke-width:1.5;" width="69.9998" x="442.9266" y="872.8516"/><text fill="#FFFFFF" font-family="sans-serif" font-size="14" lengthAdjust="spacing" textLength="55.9998" x="449.9266" y="892.8467">&#21160;&#24577;&#20195;&#29702;</text><rect fill="#FF6347" height="30.2969" rx="3.5" ry="3.5" style="stroke:#454645;stroke-width:1.5;" width="69.9998" x="734.7901" y="42.2969"/><text fill="#FFFFFF" font-family="sans-serif" font-size="14" lengthAdjust="spacing" textLength="55.9998" x="741.7901" y="62.292">&#21551;&#21160;&#25104;&#21151;</text><rect fill="#FF6347" height="30.2969" rx="3.5" ry="3.5" style="stroke:#454645;stroke-width:1.5;" width="69.9998" x="734.7901" y="872.8516"/><text fill="#FFFFFF" font-family="sans-serif" font-size="14" lengthAdjust="spacing" textLength="55.9998" x="741.7901" y="892.8467">&#21551;&#21160;&#25104;&#21151;</text><rect fill="#FF6347" height="30.2969" rx="3.5" ry="3.5" style="stroke:#454645;stroke-width:1.5;" width="97.9996" x="814.7899" y="42.2969"/><text fill="#FFFFFF" font-family="sans-serif" font-size="14" lengthAdjust="spacing" textLength="83.9996" x="821.7899" y="62.292">&#19994;&#21153;&#36923;&#36753;&#35843;&#29992;</text><rect fill="#FF6347" height="30.2969" rx="3.5" ry="3.5" style="stroke:#454645;stroke-width:1.5;" width="97.9996" x="814.7899" y="872.8516"/><text fill="#FFFFFF" font-family="sans-serif" font-size="14" lengthAdjust="spacing" textLength="83.9996" x="821.7899" y="892.8467">&#19994;&#21153;&#36923;&#36753;&#35843;&#29992;</text><rect fill="#FF6347" height="30.2969" rx="3.5" ry="3.5" style="stroke:#454645;stroke-width:1.5;" width="66.9169" x="922.7895" y="42.2969"/><text fill="#FFFFFF" font-family="sans-serif" font-size="14" lengthAdjust="spacing" textLength="52.9169" x="929.7895" y="62.292">Jexl&#24341;&#25806;</text><rect fill="#FF6347" height="30.2969" rx="3.5" ry="3.5" style="stroke:#454645;stroke-width:1.5;" width="66.9169" x="922.7895" y="872.8516"/><text fill="#FFFFFF" font-family="sans-serif" font-size="14" lengthAdjust="spacing" textLength="52.9169" x="929.7895" y="892.8467">Jexl&#24341;&#25806;</text><path d="M13.5,90.5938 L143.15,90.5938 L143.15,97.7266 L133.15,107.7266 L10,107.7266 L10,94.0938 A3.5,3.5 0 0 1 13.5,90.5938 " fill="#EEEEEE" style="stroke:#696969;stroke-width:1.5;"/><rect fill="none" height="134.7969" rx="3.5" ry="3.5" style="stroke:#696969;stroke-width:1;" width="804.7899" x="10" y="90.5938"/><text fill="#454645" font-family="sans-serif" font-size="13" font-weight="bold" lengthAdjust="spacing" textLength="88.15" x="25" y="103.6606">bean&#21152;&#36733;&#27969;&#31243;</text><polygon fill="#454645" points="223.0455,139.9922,233.0455,143.9922,223.0455,147.9922,227.0455,143.9922" style="stroke:#454645;stroke-width:1;"/><line style="stroke:#454645;stroke-width:1;" x1="54.9999" x2="229.0455" y1="143.9922" y2="143.9922"/><text fill="#000000" font-family="sans-serif" font-size="13" font-weight="bold" lengthAdjust="spacing" textLength="9.0454" x="61.9999" y="131.3599">1</text><text fill="#000000" font-family="sans-serif" font-size="13" lengthAdjust="spacing" textLength="110.4557" x="75.0453" y="123.7935">&#35760;&#24405;bean&#21152;&#36733;&#36807;&#31243;</text><text fill="#000000" font-family="sans-serif" font-size="13" lengthAdjust="spacing" textLength="143.0002" x="75.0453" y="138.9263">&#20013;&#30340;&#27599;&#20010;&#25509;&#21475;&#30340;&#30340;&#23454;&#29616;&#31867;</text><polygon fill="#454645" points="465.9265,184.2578,475.9265,188.2578,465.9265,192.2578,469.9265,188.2578" style="stroke:#454645;stroke-width:1;"/><line style="stroke:#454645;stroke-width:1;" x1="235.0455" x2="471.9265" y1="188.2578" y2="188.2578"/><text fill="#000000" font-family="sans-serif" font-size="13" font-weight="bold" lengthAdjust="spacing" textLength="9.0454" x="242.0455" y="175.6255">2</text><text fill="#000000" font-family="sans-serif" font-size="13" lengthAdjust="spacing" textLength="70.9796" x="255.0909" y="168.0591">"&#21019;&#24314;&#20195;&#29702;&#31867;</text><text fill="#000000" font-family="sans-serif" font-size="13" lengthAdjust="spacing" textLength="120.5675" x="255.0909" y="183.1919">&#24182;&#27880;&#20876;&#20840;&#23616;&#30340; bean"</text><polygon fill="#454645" points="757.79,213.3906,767.79,217.3906,757.79,221.3906,761.79,217.3906" style="stroke:#454645;stroke-width:1;"/><line style="stroke:#454645;stroke-width:1;" x1="477.9265" x2="763.79" y1="217.3906" y2="217.3906"/><text fill="#000000" font-family="sans-serif" font-size="13" font-weight="bold" lengthAdjust="spacing" textLength="9.0454" x="484.9265" y="212.3247">3</text><text fill="#000000" font-family="sans-serif" font-size="13" lengthAdjust="spacing" textLength="89.9591" x="497.9719" y="212.3247">"&#26381;&#21153;&#21551;&#21160;&#23436;&#25104;"</text><path d="M131.5458,239.3906 L225.0458,239.3906 L225.0458,246.5234 L215.0458,256.5234 L128.0458,256.5234 L128.0458,242.8906 A3.5,3.5 0 0 1 131.5458,239.3906 " fill="#EEEEEE" style="stroke:#696969;stroke-width:1.5;"/><rect fill="none" height="617.4609" rx="3.5" ry="3.5" style="stroke:#696969;stroke-width:1;" width="881.6606" x="128.0458" y="239.3906"/><text fill="#454645" font-family="sans-serif" font-size="13" font-weight="bold" lengthAdjust="spacing" textLength="52.0001" x="143.0458" y="252.4575">&#36923;&#36753;&#25191;&#34892;</text><polygon fill="#454645" points="488.9265,273.6563,478.9265,277.6563,488.9265,281.6563,484.9265,277.6563" style="stroke:#454645;stroke-width:1;"/><line style="stroke:#454645;stroke-width:1;" x1="482.9265" x2="862.7897" y1="277.6563" y2="277.6563"/><text fill="#000000" font-family="sans-serif" font-size="13" font-weight="bold" lengthAdjust="spacing" textLength="9.0454" x="494.9265" y="272.5903">1</text><text fill="#000000" font-family="sans-serif" font-size="13" lengthAdjust="spacing" textLength="154.9592" x="507.9719" y="272.5903">"&#36890;&#36807;&#20195;&#29702;&#31867;&#21457;&#36215;&#36923;&#36753;&#35843;&#29992;"</text><polygon fill="#454645" points="246.0455,302.7891,236.0455,306.7891,246.0455,310.7891,242.0455,306.7891" style="stroke:#454645;stroke-width:1;"/><line style="stroke:#454645;stroke-width:1;" x1="240.0455" x2="476.9265" y1="306.7891" y2="306.7891"/><text fill="#000000" font-family="sans-serif" font-size="13" font-weight="bold" lengthAdjust="spacing" textLength="9.0454" x="252.0455" y="301.7231">2</text><text fill="#000000" font-family="sans-serif" font-size="13" lengthAdjust="spacing" textLength="104.0001" x="265.0909" y="301.7231">&#33719;&#21462;&#25509;&#21475;&#30340;&#23454;&#29616;&#31867;</text><polygon fill="#454645" points="465.9265,331.9219,475.9265,335.9219,465.9265,339.9219,469.9265,335.9219" style="stroke:#454645;stroke-width:1;"/><line style="stroke:#454645;stroke-width:1;" x1="235.0455" x2="471.9265" y1="335.9219" y2="335.9219"/><text fill="#000000" font-family="sans-serif" font-size="13" font-weight="bold" lengthAdjust="spacing" textLength="9.0454" x="242.0455" y="330.856">3</text><text fill="#000000" font-family="sans-serif" font-size="13" lengthAdjust="spacing" textLength="130.0002" x="255.0909" y="330.856">&#35299;&#26512;&#23454;&#29616;&#31867;&#30340;&#20999;&#25442;&#35268;&#21017;</text><path d="M141.5458,350.9219 L214.6698,350.9219 L214.6698,358.0547 L204.6698,368.0547 L138.0458,368.0547 L138.0458,354.4219 A3.5,3.5 0 0 1 141.5458,350.9219 " fill="#EEEEEE" style="stroke:#696969;stroke-width:1.5;"/><rect fill="none" height="380.3984" rx="3.5" ry="3.5" style="stroke:#696969;stroke-width:1;" width="861.6606" x="138.0458" y="350.9219"/><text fill="#454645" font-family="sans-serif" font-size="13" font-weight="bold" lengthAdjust="spacing" textLength="31.624" x="153.0458" y="363.9888">loop</text><text fill="#696969" font-family="sans-serif" font-size="11" font-weight="bold" lengthAdjust="spacing" textLength="136.7636" x="229.6698" y="363.1323">["&#36941;&#21382;&#25152;&#26377;&#30340; bean &#23454;&#29616;"]</text><polygon fill="#454645" points="944.248,385.1875,954.248,389.1875,944.248,393.1875,948.248,389.1875" style="stroke:#454645;stroke-width:1;"/><line style="stroke:#454645;stroke-width:1;" x1="477.9265" x2="950.248" y1="389.1875" y2="389.1875"/><text fill="#000000" font-family="sans-serif" font-size="13" font-weight="bold" lengthAdjust="spacing" textLength="9.0454" x="484.9265" y="384.1216">4</text><text fill="#000000" font-family="sans-serif" font-size="13" lengthAdjust="spacing" textLength="112.8741" x="497.9719" y="384.1216">"&#21019;&#24314;jexl&#35299;&#26512;&#24341;&#25806;"</text><polygon fill="#454645" points="944.248,414.3203,954.248,418.3203,944.248,422.3203,948.248,418.3203" style="stroke:#454645;stroke-width:1;"/><line style="stroke:#454645;stroke-width:1;" x1="477.9265" x2="950.248" y1="418.3203" y2="418.3203"/><text fill="#000000" font-family="sans-serif" font-size="13" font-weight="bold" lengthAdjust="spacing" textLength="9.0454" x="484.9265" y="413.2544">5</text><text fill="#000000" font-family="sans-serif" font-size="13" lengthAdjust="spacing" textLength="125.8741" x="497.9719" y="413.2544">"&#21521;jexl&#27880;&#20876;&#26041;&#27861;&#20837;&#21442;"</text><polygon fill="#454645" points="944.248,443.4531,954.248,447.4531,944.248,451.4531,948.248,447.4531" style="stroke:#454645;stroke-width:1;"/><line style="stroke:#454645;stroke-width:1;" x1="477.9265" x2="950.248" y1="447.4531" y2="447.4531"/><text fill="#000000" font-family="sans-serif" font-size="13" font-weight="bold" lengthAdjust="spacing" textLength="9.0454" x="484.9265" y="442.3872">6</text><text fill="#000000" font-family="sans-serif" font-size="13" lengthAdjust="spacing" textLength="203.8742" x="497.9719" y="442.3872">"&#21521;jexl&#27880;&#20876;&#20840;&#23616;&#21464;&#37327;&#21644;&#33258;&#23450;&#20041;&#20989;&#25968;"</text><polygon fill="#454645" points="944.248,472.5859,954.248,476.5859,944.248,480.5859,948.248,476.5859" style="stroke:#454645;stroke-width:1;"/><line style="stroke:#454645;stroke-width:1;" x1="477.9265" x2="950.248" y1="476.5859" y2="476.5859"/><text fill="#000000" font-family="sans-serif" font-size="13" font-weight="bold" lengthAdjust="spacing" textLength="9.0454" x="484.9265" y="471.52">7</text><text fill="#000000" font-family="sans-serif" font-size="13" lengthAdjust="spacing" textLength="225.1389" x="497.9719" y="471.52">"&#36890;&#36807; jexl &#26469;&#25191;&#34892;&#33050;&#26412;&#24182;&#33719;&#21462;&#36820;&#22238;&#32467;&#26524;"</text><polygon fill="#454645" points="488.9265,501.7188,478.9265,505.7188,488.9265,509.7188,484.9265,505.7188" style="stroke:#454645;stroke-width:1;"/><line style="stroke:#454645;stroke-width:1;" x1="482.9265" x2="955.248" y1="505.7188" y2="505.7188"/><text fill="#000000" font-family="sans-serif" font-size="13" font-weight="bold" lengthAdjust="spacing" textLength="9.0454" x="494.9265" y="500.6528">8</text><text fill="#000000" font-family="sans-serif" font-size="13" lengthAdjust="spacing" textLength="234.0066" x="507.9719" y="500.6528">"jexl &#25191;&#34892;&#36755;&#20837;&#30340;&#26465;&#20214;&#34920;&#36798;&#24335;&#24182;&#36820;&#22238;&#32467;&#26524;"</text><line style="stroke:#454645;stroke-width:1;stroke-dasharray:2.0,2.0;" x1="477.9265" x2="519.9265" y1="534.8516" y2="534.8516"/><line style="stroke:#454645;stroke-width:1;stroke-dasharray:2.0,2.0;" x1="519.9265" x2="519.9265" y1="534.8516" y2="547.8516"/><line style="stroke:#454645;stroke-width:1;stroke-dasharray:2.0,2.0;" x1="478.9265" x2="519.9265" y1="547.8516" y2="547.8516"/><polygon fill="#454645" points="488.9265,543.8516,478.9265,547.8516,488.9265,551.8516,484.9265,547.8516" style="stroke:#454645;stroke-width:1;"/><text fill="#000000" font-family="sans-serif" font-size="13" font-weight="bold" lengthAdjust="spacing" textLength="9.0454" x="484.9265" y="529.7856">9</text><text fill="#000000" font-family="sans-serif" font-size="13" lengthAdjust="spacing" textLength="264.8181" x="497.9719" y="529.7856">"&#21028;&#23450;jexl &#25191;&#34892;&#36755;&#20837;&#30340;&#26465;&#20214;&#34920;&#36798;&#24335;&#26159;&#21542;&#20026; true"</text><path d="M151.5458,562.8516 L212.4886,562.8516 L212.4886,569.9844 L202.4886,579.9844 L148.0458,579.9844 L148.0458,566.3516 A3.5,3.5 0 0 1 151.5458,562.8516 " fill="#EEEEEE" style="stroke:#696969;stroke-width:1.5;"/><rect fill="none" height="161.4688" rx="3.5" ry="3.5" style="stroke:#696969;stroke-width:1;" width="774.7438" x="148.0458" y="562.8516"/><text fill="#454645" font-family="sans-serif" font-size="13" font-weight="bold" lengthAdjust="spacing" textLength="19.4429" x="163.0458" y="575.9185">alt</text><text fill="#696969" font-family="sans-serif" font-size="11" font-weight="bold" lengthAdjust="spacing" textLength="136.0711" x="227.4886" y="575.062">["jexl eval&#32467;&#26524;&#20026; true"]</text><polygon fill="#454645" points="246.0455,597.1172,236.0455,601.1172,246.0455,605.1172,242.0455,601.1172" style="stroke:#454645;stroke-width:1;"/><line style="stroke:#454645;stroke-width:1;" x1="240.0455" x2="476.9265" y1="601.1172" y2="601.1172"/><text fill="#000000" font-family="sans-serif" font-size="13" font-weight="bold" lengthAdjust="spacing" textLength="9.0454" x="252.0455" y="596.0513">1</text><text fill="#000000" font-family="sans-serif" font-size="13" lengthAdjust="spacing" textLength="180.9592" x="265.0909" y="596.0513">"&#35843;&#29992;&#31526;&#21512;&#26465;&#20214;&#30340;&#23454;&#29616;&#31867;&#30340;&#26041;&#27861;"</text><polygon fill="#454645" points="465.9265,626.25,475.9265,630.25,465.9265,634.25,469.9265,630.25" style="stroke:#454645;stroke-width:1;"/><line style="stroke:#454645;stroke-width:1;" x1="235.0455" x2="471.9265" y1="630.25" y2="630.25"/><text fill="#000000" font-family="sans-serif" font-size="13" font-weight="bold" lengthAdjust="spacing" textLength="9.0454" x="242.0455" y="625.1841">2</text><text fill="#000000" font-family="sans-serif" font-size="13" lengthAdjust="spacing" textLength="115.9591" x="255.0909" y="625.1841">"&#36820;&#22238;&#20989;&#25968;&#25191;&#34892;&#32467;&#26524;"</text><polygon fill="#454645" points="851.7897,655.3828,861.7897,659.3828,851.7897,663.3828,855.7897,659.3828" style="stroke:#454645;stroke-width:1;"/><line style="stroke:#454645;stroke-width:1;" x1="477.9265" x2="857.7897" y1="659.3828" y2="659.3828"/><text fill="#000000" font-family="sans-serif" font-size="13" font-weight="bold" lengthAdjust="spacing" textLength="9.0454" x="484.9265" y="654.3169">3</text><text fill="#000000" font-family="sans-serif" font-size="13" lengthAdjust="spacing" textLength="115.9591" x="497.9719" y="654.3169">"&#36820;&#22238;&#20989;&#25968;&#25191;&#34892;&#32467;&#26524;"</text><line style="stroke:#696969;stroke-width:1;stroke-dasharray:2.0,2.0;" x1="148.0458" x2="922.7895" y1="668.3828" y2="668.3828"/><text fill="#696969" font-family="sans-serif" font-size="11" font-weight="bold" lengthAdjust="spacing" textLength="140.0833" x="153.0458" y="678.5933">["jexl eval&#32467;&#26524;&#20026; false"]</text><line style="stroke:#454645;stroke-width:1;" x1="235.0455" x2="277.0455" y1="703.3203" y2="703.3203"/><line style="stroke:#454645;stroke-width:1;" x1="277.0455" x2="277.0455" y1="703.3203" y2="716.3203"/><line style="stroke:#454645;stroke-width:1;" x1="236.0455" x2="277.0455" y1="716.3203" y2="716.3203"/><polygon fill="#454645" points="246.0455,712.3203,236.0455,716.3203,246.0455,720.3203,242.0455,716.3203" style="stroke:#454645;stroke-width:1;"/><text fill="#000000" font-family="sans-serif" font-size="13" font-weight="bold" lengthAdjust="spacing" textLength="9.0454" x="242.0455" y="698.2544">1</text><text fill="#000000" font-family="sans-serif" font-size="13" lengthAdjust="spacing" textLength="209.9489" x="255.0909" y="698.2544">"&#32487;&#32493;&#36941;&#21382; eval&#19979;&#19968;&#20010; bean&#30340;&#26465;&#20214;"</text><path d="M151.5458,745.3203 L212.4886,745.3203 L212.4886,752.4531 L202.4886,762.4531 L148.0458,762.4531 L148.0458,748.8203 A3.5,3.5 0 0 1 151.5458,745.3203 " fill="#EEEEEE" style="stroke:#696969;stroke-width:1.5;"/><rect fill="none" height="104.5313" rx="3.5" ry="3.5" style="stroke:#696969;stroke-width:1;" width="774.7438" x="148.0458" y="745.3203"/><text fill="#454645" font-family="sans-serif" font-size="13" font-weight="bold" lengthAdjust="spacing" textLength="19.4429" x="163.0458" y="758.3872">alt</text><text fill="#696969" font-family="sans-serif" font-size="11" font-weight="bold" lengthAdjust="spacing" textLength="153.5157" x="227.4886" y="757.5308">["&#26410;&#21629;&#20013;&#20219;&#20309;&#31526;&#21512;&#26465;&#20214;&#23454;&#29616;&#31867;"]</text><polygon fill="#454645" points="246.0455,779.5859,236.0455,783.5859,246.0455,787.5859,242.0455,783.5859" style="stroke:#454645;stroke-width:1;"/><line style="stroke:#454645;stroke-width:1;" x1="240.0455" x2="476.9265" y1="783.5859" y2="783.5859"/><text fill="#000000" font-family="sans-serif" font-size="13" font-weight="bold" lengthAdjust="spacing" textLength="9.0454" x="252.0455" y="778.52">1</text><text fill="#000000" font-family="sans-serif" font-size="13" lengthAdjust="spacing" textLength="205.8356" x="265.0909" y="778.52">"&#33719;&#21462;&#36890;&#36807;primary&#26631;&#27880;&#30340;&#40664;&#35748;&#23454;&#29616;"</text><polygon fill="#454645" points="465.9265,808.7188,475.9265,812.7188,465.9265,816.7188,469.9265,812.7188" style="stroke:#454645;stroke-width:1;"/><line style="stroke:#454645;stroke-width:1;" x1="235.0455" x2="471.9265" y1="812.7188" y2="812.7188"/><text fill="#000000" font-family="sans-serif" font-size="13" font-weight="bold" lengthAdjust="spacing" textLength="9.0454" x="242.0455" y="807.6528">2</text><text fill="#000000" font-family="sans-serif" font-size="13" lengthAdjust="spacing" textLength="115.9591" x="255.0909" y="807.6528">"&#36820;&#22238;&#20989;&#25968;&#25191;&#34892;&#32467;&#26524;"</text><polygon fill="#454645" points="851.7897,837.8516,861.7897,841.8516,851.7897,845.8516,855.7897,841.8516" style="stroke:#454645;stroke-width:1;"/><line style="stroke:#454645;stroke-width:1;" x1="477.9265" x2="857.7897" y1="841.8516" y2="841.8516"/><text fill="#000000" font-family="sans-serif" font-size="13" font-weight="bold" lengthAdjust="spacing" textLength="9.0454" x="484.9265" y="836.7856">3</text><text fill="#000000" font-family="sans-serif" font-size="13" lengthAdjust="spacing" textLength="115.9591" x="497.9719" y="836.7856">"&#36820;&#22238;&#20989;&#25968;&#25191;&#34892;&#32467;&#26524;"</text><!--SRC=[hLNTSjf66BtdAHHTzAulm4KVeC-GcHrPhB5QM36hXRXtk4sCxTY0wv2ws77ZEeaPJuAToSJ1LY0lers9j-Z-WBI0aEssp318x7VEzt-MEAG43Tg-f3izupk3RPz7fxliZsjwsw97ezmZiWRBqAWvAzX29FUe05ST10qFuffZG-0H2nE37U_HdLF54PjWQBku09nofMIOKV-A3ZliiXKCBbZpBMsTXTsdj7yIDg_2ZxwP1W9bhsWet0gq4Drv7Gs7qRT6s7l-60M33vnWZa-dZ1ahs5t_1GW6m-JXiVf6u9-5xSt4fusXHI1GXiAfIRUEg7-hx3ZNOqHlhjcd7jtSfSzwz6ETEp84Oy8Xwm2ygcr3p-C4iXHigqrt_bfYf3pfbQFzNOv8p8K7K7Aj0bWjkK-Cf0ZiymOlGcnNSekE3U0wj44HkzKAG1RlsBZkHwDzrSuKKyCC1btkMfb5Lx-5Btfc6gKCSrplyih71Q6j_UZpbtHe4HAjVSqljFLoiU59TopiGM2xgE0GnqK0L_amHkTdxAGT6mlWLeFj_HsTyuS_O-nFSBq482gAP_D7_aA_TjX1qqmp09CcQ-qLfnDFMJWN4RXE9i3slZXJey1Uth1F7VgCv_PhDXR3OWfUZH9j7OuRBVhxRjIueFrkSBDD6qFMkKfdX3Mhf7T47XhirLlLv-Xfbns_vyEgwXvzUq6FJaB_W9qSP_1Xw5LBn30Lbo8Q7V34n8QzEWtyw-Yq5ur6z6jBKD-FD6wfAFSRdjazsDdX9Ms_2mQt1i5Lg4-ZMv4Rd0oMETxOeyrDjbrdnzlJTJJKo6WBPsEdGbH0Wb91PIJYFvN4eZyTjcgLlEKuUPe552FWeAddq3yF_GygTCaK39u7WphNC1b_N94v3P1PEwZc_inv85bp2ufEhLxu_XrjRocWlcE2JOxetMmOaYf64rBPNpM4gbtplKOkA5l4NdDGKUwh1vv03C6QGuIUNT3z8LVdmFU3OKUFBKNjXLRmHukFdmoBtpI8M588B8HS_WWBeEPON9kTieKdwgo6Mot0v82zRl2buXcF_SEe_sOw1pcfXtD2cZFunweI5rNBAn3BrzdhxFiVPYwl_Foj926w1GSarqn-uKAHzjeznCrdheBymiMGWwWmZJvLtjEIqCHzDg1PDK-9Hiibh-ltNOccgVSa5BUIihRoRD6z9Xxv9QBzO6GYs_yMEb7jXyAd4XtZz6jghdvBf3ZLvLtGk0inskAYdgQ0iK7A3AKdgyz7bYJDK6JCpTqwb15CCiqF8e9SZjEL_Jxrc4jcfY3Pgfy4m5TQ_nNjMIwbkOo0ifVteOAQ-tyRzf-R9Uh3l_y0]--></g></svg>